# xmcd CD database file
#
# Track frame offsets:
#	150
#	22574
#	49350
#	95998
#	130497
#	148273
#	188183
#	235355
#	257761
#	281802
#	317503
#
# Disc length: 4534 seconds
#
# Revision: 1
# Processed by: cddbd v1.5.2PL0 Copyright (c) Steve Scherf et al.
# Submitted via: CDex 1.79
#
DISCID=a711b40b
DTITLE=Clemens Orth - Here Now
DYEAR=2008
DGENRE=Jazz
TTITLE0=you'd be so nice to come home
TTITLE1=max's watermill
TTITLE2=countersuite
TTITLE3=dead dogs don't bark
TTITLE4=caro's delight
TTITLE5=a child is born
TTITLE6=3 colors of a day
TTITLE7=2+2 =5
TTITLE8=june 15th 1995
TTITLE9=serbian hip dance
TTITLE10=waltz for a bartender
EXTD=YEAR: 2008
EXTT0=
EXTT1=
EXTT2=
EXTT3=
EXTT4=
EXTT5=
EXTT6=
EXTT7=
EXTT8=
EXTT9=
EXTT10=
PLAYORDER=
